<?xml version="1.0" standalone="no"?>
<!DOCTYPE svg PUBLIC "-//W3C//DTD SVG 20010904//EN"
 "http://www.w3.org/TR/2001/REC-SVG-20010904/DTD/svg10.dtd">
<svg version="1.0" xmlns="http://www.w3.org/2000/svg"
 width="840.000000pt" height="880.000000pt" viewBox="0 0 840.000000 880.000000"
 preserveAspectRatio="xMidYMid meet">

<g transform="translate(0.000000,880.000000) scale(0.100000,-0.100000)"
fill="#071115ad" stroke="none">
<path d="M3895 8389 c-941 -73 -1805 -464 -2484 -1124 -679 -660 -1090 -1510
-1191 -2460 -21 -194 -23 -517 -6 -725 80 -977 493 -1857 1188 -2535 660 -645
1476 -1028 2393 -1125 368 -39 830 -16 1206 60 1527 307 2755 1506 3098 3027
114 506 130 1042 46 1553 -196 1187 -923 2224 -1980 2825 -493 281 -1056 453
-1632 500 -192 16 -462 17 -638 4z m715 -434 c678 -81 1288 -336 1830 -766
145 -115 437 -408 559 -562 363 -459 606 -985 715 -1552 46 -238 60 -400 60
-675 0 -275 -14 -437 -60 -675 -275 -1431 -1408 -2564 -2839 -2839 -238 -46
-400 -60 -675 -60 -276 0 -439 15 -675 60 -573 111 -1092 351 -1552 715 -154
122 -447 414 -562 559 -432 544 -683 1147 -768 1840 -24 200 -24 600 0 800 84
689 335 1294 759 1827 128 162 407 441 565 566 591 469 1235 718 2018 781 104
8 496 -4 625 -19z"/>
<path d="M3459 6261 c-60 -39 -1743 -1727 -1764 -1770 -26 -53 -23 -141 8
-193 14 -24 414 -431 889 -904 700 -699 870 -864 902 -874 59 -19 147 -9 194
22 49 33 92 114 92 172 -1 90 -4 94 -713 803 l-672 673 2202 2 2201 3 44 30
c124 88 124 262 0 350 l-44 30 -2199 5 -2199 5 666 665 c706 705 714 714 714
805 0 51 -29 111 -71 152 -44 41 -77 53 -148 53 -46 0 -66 -6 -102 -29z"/>
</g>
</svg>
