<?xml version="1.0" standalone="no"?>
<!DOCTYPE svg PUBLIC "-//W3C//DTD SVG 20010904//EN"
 "http://www.w3.org/TR/2001/REC-SVG-20010904/DTD/svg10.dtd">
<svg version="1.0" xmlns="http://www.w3.org/2000/svg"
 width="512.000000pt" height="512.000000pt" viewBox="0 0 512.000000 512.000000"
 preserveAspectRatio="xMidYMid meet">

<g transform="translate(0.000000,512.000000) scale(0.100000,-0.100000)"
fill="#59C3C3" stroke="none">
<path d="M2390 4994 c-355 -32 -644 -114 -944 -266 -652 -333 -1131 -964
-1275 -1683 -36 -181 -45 -278 -45 -485 0 -207 9 -304 45 -485 191 -953 951
-1713 1904 -1904 181 -36 278 -45 485 -45 207 0 304 9 485 45 719 144 1350
623 1683 1275 133 263 210 509 254 819 21 150 16 485 -10 650 -43 272 -117
503 -237 742 -356 705 -1024 1190 -1811 1313 -124 20 -431 33 -534 24z m563
-681 c321 -151 327 -603 9 -760 -68 -34 -85 -38 -168 -41 -68 -3 -107 1 -146
13 -254 82 -370 366 -248 605 27 54 97 127 148 157 86 51 138 64 242 60 82 -2
104 -7 163 -34z m-348 -984 c81 -28 139 -63 204 -123 101 -96 152 -194 170
-331 11 -76 6 -116 -89 -833 -55 -414 -100 -767 -100 -784 0 -59 36 -114 93
-142 45 -23 63 -26 151 -26 56 0 121 5 145 11 83 19 81 -23 -4 -118 -63 -70
-160 -138 -255 -178 -78 -34 -225 -45 -311 -25 -187 43 -348 188 -409 369 -41
123 -40 145 69 962 97 733 100 758 86 807 -33 110 -178 186 -394 208 -76 7
-106 25 -80 48 39 35 363 157 468 176 66 12 185 2 256 -21z"/>
</g>
</svg>
