<?xml version="1.0" standalone="no"?>
<!DOCTYPE svg PUBLIC "-//W3C//DTD SVG 20010904//EN"
 "http://www.w3.org/TR/2001/REC-SVG-20010904/DTD/svg10.dtd">
<svg version="1.0" xmlns="http://www.w3.org/2000/svg"
 width="200.000000pt" height="200.000000pt" viewBox="0 0 200.000000 200.000000"
 preserveAspectRatio="xMidYMid meet">

<g transform="translate(0.000000,200.000000) scale(0.100000,-0.100000)"
fill="#59C3C3" stroke="none">
<path d="M871 1749 c-254 -45 -478 -227 -576 -466 -56 -139 -76 -393 -31 -393
7 0 31 19 54 43 37 37 42 49 42 87 0 77 28 182 71 270 82 166 251 296 435 335
345 73 688 -152 758 -497 20 -97 20 -159 0 -255 -84 -408 -526 -629 -897 -449
-98 47 -182 118 -245 206 l-53 74 123 123 123 123 137 -137 138 -138 194 194
195 195 3 -65 3 -64 58 -3 57 -3 -2 168 -3 168 -160 0 -160 0 -3 -57 -3 -58
61 0 c33 0 60 -3 60 -8 0 -4 -65 -72 -145 -152 l-145 -144 -133 132 c-74 73
-140 132 -148 132 -8 0 -99 -85 -202 -188 l-189 -189 35 -69 c77 -153 203
-278 350 -348 390 -186 861 -8 1026 387 84 204 79 427 -14 623 -93 193 -284
353 -490 409 -73 20 -250 28 -324 14z"/>
</g>
</svg>
